<svg width="264" height="95" viewBox="0 0 264 95" fill="none" xmlns="http://www.w3.org/2000/svg">
<g filter="url(#filter0_d_139_1203)">
<path d="M41.9719 0.358663V85.9591L41.5026 86.2304L40.7899 85.8187V0.324356L41.3529 0L41.9719 0.358663Z" fill="white"/>
<path d="M51.1523 16.6011V80.6583L49.9687 81.3413V15.9165L51.1523 16.6011Z" fill="white"/>
<path d="M32.7844 4.94775V81.1964L31.6024 80.5134V5.62921L32.7844 4.94775Z" fill="white"/>
<path d="M14.4441 69.2431V70.6076L13.6161 70.1289L13.2184 69.8996V68.5352L13.6145 68.7644L14.4441 69.2431Z" fill="white"/>
<path d="M14.4441 26.5127V59.9822L13.8126 59.6173L13.2184 59.2742V27.2191L14.0527 26.7388L14.4441 26.5127Z" fill="white"/>
<path d="M23.6037 21.2231V22.5892L22.4217 23.2706V21.9062L23.6037 21.2231Z" fill="white"/>
<path d="M23.6037 63.9062V65.2706L22.8178 64.8169L22.4217 64.5892V63.2231L22.8162 63.4524L23.6037 63.9062Z" fill="white"/>
<path d="M23.6037 31.5713V54.6754L22.9878 54.3199L22.4217 54.6474V31.5713L23.0127 31.9128H23.0143L23.6037 31.5713Z" fill="white"/>
<path d="M5.24197 20.8486V65.2948L4.61041 64.9299L4.05994 64.6118V21.5317L5.24197 20.8486Z" fill="white"/>
<path d="M32.784 26.271V27.6355L31.602 28.3185L24.1948 32.5944L23.6038 32.9359L22.4218 33.6189V32.9359L21.8323 32.5944L22.4218 32.2544L23.0128 31.9129H23.0144L23.6038 31.5714L31.602 26.954L32.784 26.271Z" fill="white"/>
<path d="M24.1951 32.5943L23.6041 32.9358V33.6173L23.0131 33.2774L22.422 32.9358L21.8326 32.5943L14.4441 28.3294L14.0527 28.1032L13.2184 27.6214V27.2191L14.0527 26.7388L14.4441 26.9649L15.2348 27.4202L22.422 31.5714L23.0131 31.9129H23.0146L23.6041 32.2528L24.1951 32.5943Z" fill="white"/>
<path d="M4.05994 32.5068L5.24197 31.8237V33.1898L4.05994 33.8728V32.5068Z" fill="white"/>
<path d="M32.7843 15.9229V17.2889L32.1746 17.6398L31.6023 17.9703L23.6041 22.5893L22.4221 23.2708L15.2348 27.4203L14.4441 27.8772L14.0527 28.1034L13.2184 28.5852V27.2192L14.0527 26.7389L14.4441 26.5128L22.4221 21.9063L23.6041 21.2233L30.9925 16.9583H30.9941L31.6023 16.6059L32.1761 16.2753L32.7843 15.9229Z" fill="white"/>
<path d="M41.9719 10.6187V11.9831L41.3809 12.3231L40.7899 12.6646V11.3001L41.3809 10.9586L41.9719 10.6187Z" fill="white"/>
<path d="M52.0397 6.17023L50.8576 6.85325L49.6756 6.17179L50.8576 5.48877L52.0397 6.17023Z" fill="white"/>
<path d="M41.9719 11.3007V12.6652L41.3809 12.3237L40.7899 11.9822V10.6177L41.3809 10.9592L41.9719 11.3007Z" fill="white"/>
<path d="M69.5283 27.2097V28.5758L68.8344 28.175L68.3463 27.8927L67.6523 27.492L60.2343 23.2083L59.0522 22.5268L51.1523 17.9656L49.9687 17.2825V15.9165L51.1523 16.6011L59.0522 21.1608L60.2343 21.8438L68.3463 26.5267L68.8344 26.8089L69.5283 27.2097Z" fill="white"/>
<path d="M78.8082 32.5678V33.9338L77.6246 33.2492V31.8848L78.8082 32.5678Z" fill="white"/>
<path d="M22.6699 10.7856L23.8519 11.4687L22.6699 12.1517L5.24197 22.2145L4.05994 22.896V21.5315L5.24197 20.8485L21.4878 11.4687L22.6699 10.7856Z" fill="white"/>
<path d="M42.5353 0.683019L41.9724 1.00893L41.3533 1.36604L40.7904 1.69039L32.7844 6.31247L31.6024 6.99549V5.62945L32.7844 4.94799L40.1697 0.683019L40.7904 0.324356L41.3533 0L41.9724 0.358663L42.5353 0.683019Z" fill="white"/>
<path d="M78.8085 21.6258V22.9919L77.6249 22.3088L69.5285 17.6337L68.3464 16.9523L60.2344 12.2678L59.0524 11.5848L50.8577 6.85358L49.6757 6.17212L41.9722 1.7247L41.3531 1.36604L40.7902 1.04168L40.1696 0.683019L40.7902 0.324356L41.3531 0L41.9722 0.358663L42.5352 0.683019L50.8577 5.4891L52.0397 6.17056L59.0524 10.2203L60.2344 10.9018L69.3195 16.1476L69.5285 16.2677L77.6249 20.9428L78.8085 21.6258Z" fill="white"/>
<path d="M78.8082 21.6259V64.6904L77.6246 65.3734V20.9429L78.8082 21.6259Z" fill="white"/>
<path d="M49.969 79.977L51.1525 79.2939V80.6584L49.969 81.3414L42.6834 85.5472L41.9723 85.9588L41.503 86.2302L40.7903 85.8185L40.3209 85.5472L40.7903 85.2774L41.503 84.8657L41.9723 84.5944L49.969 79.977Z" fill="white"/>
<path d="M78.8085 63.3262V64.6907L77.6249 65.3737L69.0513 70.3248L67.8693 71.0078L61.0609 74.9375L60.2344 75.4147L59.8789 75.6205L59.0524 75.1433L58.6984 74.9375L59.0524 74.7332L59.8789 74.256H59.8805L60.2344 74.0502L66.6873 70.3248L67.8708 69.6418L68.3465 69.3673L69.5285 68.6843L77.6249 64.0108L78.8085 63.3262Z" fill="white"/>
<path d="M24.2449 74.9015L23.0628 75.5845L21.8824 74.9015L14.444 70.6084L13.616 70.1297L13.2183 69.9005L12.4339 69.4467L5.24197 65.2955L4.61041 64.9306L4.05994 64.6125V63.248L4.61197 63.5662L5.24197 63.9311L5.79244 64.2492L13.2183 68.536L13.6144 68.7652L14.444 69.244L14.798 69.4482L23.0628 74.22L24.2449 74.9015Z" fill="white"/>
<path d="M42.6835 85.5466L41.9724 85.9583L41.503 86.2296L40.7904 85.8179L40.321 85.5466L32.7844 81.1958L31.6024 80.5128V79.1499L32.7844 79.8314L40.7904 84.4534L41.503 84.8651L41.9724 85.1365L42.6835 85.5466Z" fill="white"/>
<path d="M41.9719 73.8657V75.2318L41.4137 75.5546L40.7899 75.9148V74.5487L41.4137 74.1885L41.9719 73.8657Z" fill="white"/>
<path d="M69.5283 58.7467V57.9561L68.8437 58.3521H68.8422L68.3463 58.6375L67.6601 59.0336L60.2343 63.322L59.0522 64.005L58.5797 64.2779L57.3961 64.9593L51.1523 68.5647L50.5893 68.8906L49.9687 69.2493V69.898V70.6137L50.5893 70.2551L51.1523 69.9307L51.7714 69.5736L58.5782 65.6424L59.0522 65.3695L59.7618 64.9593L60.2343 64.6864L68.3463 60.0036L68.8422 59.7166L69.5283 59.3205V58.7467Z" fill="white"/>
<path d="M78.8082 52.5986V53.9631L77.6246 54.6461V53.2817L78.8082 52.5986Z" fill="white"/>
<path d="M4.05994 52.6216L5.24197 53.3046V54.6675L4.05994 53.9861V52.6216Z" fill="white"/>
<path d="M32.7843 69.2065V70.571L32.265 70.2716L31.6023 69.8895L31.083 69.5901L23.6041 65.2705L22.8181 64.8168L22.4221 64.5891L21.6346 64.1337L14.4441 59.9826L13.8126 59.6177L13.2184 59.2746V57.9102L13.8126 58.2532L14.4441 58.6181L14.9946 58.9362L22.4221 63.223L22.8166 63.4523L23.6041 63.9061L24.0002 64.1353L31.6023 68.5235L32.265 68.9071L32.7843 69.2065Z" fill="white"/>
<path d="M41.9719 74.5111V75.8772L41.4137 75.5544L40.7899 75.1942V73.8281L41.4137 74.1883L41.9719 74.5111Z" fill="white"/>
<path d="M69.5284 16.1479V17.6341L68.3464 16.9526V16.1479H69.5284Z" fill="white"/>
<path d="M69.5284 27.2099V59.3211L68.8423 59.7172L68.3464 60.0042V26.5269L68.8345 26.8091L69.5284 27.2099Z" fill="white"/>
<path d="M68.3464 69.3671L69.5284 68.6841V70.0267H68.3464V69.3671Z" fill="white"/>
<path d="M60.2347 10.9017V12.2677L59.0527 11.5847V10.2202L60.2347 10.9017Z" fill="white"/>
<path d="M59.6281 32.1248L60.2347 31.7739V54.7471L59.6951 54.4352L59.0527 54.8063V31.7926L59.6281 32.1248Z" fill="white"/>
<path d="M60.2347 21.8437V23.2081L59.0527 22.5267V21.1606L60.2347 21.8437Z" fill="white"/>
<path d="M59.0527 64.0058L60.2347 63.3228V64.6872L59.7622 64.9601L59.0527 65.3703V64.0058Z" fill="white"/>
<path d="M59.8807 74.2551L60.2347 74.0493V75.4137L59.8792 75.6196L59.0527 75.1424V73.7764L59.8792 74.2551H59.8807Z" fill="white"/>
<path d="M32.7841 16.6256V17.9917L32.1744 17.6392L31.6021 17.3086L30.9939 16.9578H30.9924L22.6698 12.1517L21.4878 11.4687L22.6698 10.7856L23.8519 11.4687L31.6021 15.9442L32.176 16.2747L32.7841 16.6256Z" fill="white"/>
<path d="M40.7899 21.2476L41.9719 21.9306V23.2966L40.7899 22.6136V21.2476Z" fill="white"/>
<path d="M60.8112 32.8073L60.2343 33.1395V33.8396L59.6276 33.4888L59.0522 33.1566L58.4456 32.8057L51.1523 28.5954L49.9687 27.9123V26.5479L51.1523 27.2309L59.0522 31.7921L59.6276 32.1243L60.2343 32.4736L60.8112 32.8073Z" fill="white"/>
<path d="M69.5284 37.8406V39.2067L68.3464 38.5237V37.1592L69.5284 37.8406Z" fill="white"/>
<path d="M78.8082 43.1982V44.5642L77.8008 43.9825L77.6246 43.8812V42.5151L77.8008 42.6165L78.8082 43.1982Z" fill="white"/>
<path d="M13.2184 47.3149L14.4441 48.0229V49.3874L13.2184 48.6794V47.3149Z" fill="white"/>
<path d="M32.7839 58.6114V59.9758L31.9933 59.5189L31.6019 59.2928L30.8097 58.8359L23.6037 54.6754L22.9878 54.3199L22.4217 53.9924V52.6279L22.9893 52.9554L23.6037 53.3109L24.1698 53.6384L31.6019 57.9283L31.9918 58.1545L32.7839 58.6114Z" fill="white"/>
<path d="M41.9719 63.9164V65.2809L41.4402 64.9737L40.7899 64.5979V63.2334L41.4402 63.6092L41.9719 63.9164Z" fill="white"/>
<path d="M61.0607 74.9367L60.2343 75.4139L59.8787 75.6197L59.0522 75.1425L58.6982 74.9367H58.6967L51.1523 70.5813L50.5893 70.2554L49.9687 69.8983V68.5322L50.5893 68.8909L51.1523 69.2152L51.7714 69.5739L59.0522 73.7765L59.8787 74.2552H59.8803L60.2343 74.4595L61.0607 74.9367Z" fill="white"/>
<path d="M32.7843 68.6074V69.9719L32.265 70.2713L31.6023 70.6534L24.245 74.9012L23.063 75.5842L21.8825 74.9012L23.063 74.2197L31.083 69.5898L31.6023 69.2889L32.265 68.9068L32.7843 68.6074Z" fill="white"/>
<path d="M41.9719 63.3022V64.6667L41.4402 64.9739L40.7899 65.3497V63.9853L41.4402 63.6094L41.9719 63.3022Z" fill="white"/>
<path d="M60.2343 53.381L60.8767 53.7521L60.2343 54.1233L59.6947 54.4351L59.0522 54.8063L51.1523 59.3675L50.6127 59.6779L49.9687 60.0506V58.6845L51.1523 58.0015L58.5111 53.7521H58.5127L59.0522 53.4403L59.6947 53.0691L60.2343 52.7588V53.381Z" fill="white"/>
<path d="M69.5284 47.3931V48.7575L68.3464 49.4406V48.0745L69.5284 47.3931Z" fill="white"/>
<path d="M78.8082 42.0347V43.4007L77.8008 43.9824L77.6246 44.0837V42.7177L77.8008 42.6163L78.8082 42.0347Z" fill="white"/>
<path d="M50.6127 59.6788L51.1523 59.9906V61.3567L49.9687 60.6721V59.3076L50.6127 59.6788Z" fill="white"/>
<path d="M59.7619 64.9593L59.0523 65.3694L58.5783 65.6423L57.3962 64.9593L58.5798 64.2778L59.0523 64.5507L59.7619 64.9593Z" fill="white"/>
<path d="M69.0512 70.3241L67.8692 71.0072L66.6871 70.3241L67.8707 69.6411L68.3463 69.9156L68.5366 70.0263L69.0512 70.3241Z" fill="white"/>
<path d="M69.5282 58.7471L68.8436 58.3525H68.8421L68.3462 58.0656L60.8766 53.7523L60.2342 53.3812L59.6946 53.0693L59.0521 52.6997V53.4404L58.5126 53.7523L59.0521 54.0642L59.6946 54.4353L60.2342 54.7472L67.66 59.034L68.3462 59.4317L68.8421 59.717L69.5282 59.3209V58.7471Z" fill="white"/>
<path d="M14.7982 69.4472L14.4442 69.6499L13.6162 70.1286L13.2185 69.8994L12.4341 69.4456L13.2185 68.9918L13.6146 68.7642L14.4442 69.2429L14.7982 69.4472Z" fill="white"/>
<path d="M24 64.1357L23.6039 64.3633L22.818 64.8171L22.4219 64.5894L21.6344 64.1341L22.4219 63.6803L22.8164 63.4526L23.6039 63.9064L24 64.1357Z" fill="white"/>
<path d="M32.7841 57.6963V59.0623L31.9935 59.5192L31.6021 59.7453V59.2931L30.8099 58.8362L31.6021 58.3793L31.992 58.1548L32.7841 57.6963Z" fill="white"/>
<path d="M40.7899 53.0745L41.9719 52.3931V53.7575L40.7899 54.4406V53.0745Z" fill="white"/>
<path d="M51.1523 47.0923V48.4583L49.9687 49.1413V47.7753L51.1523 47.0923Z" fill="white"/>
<path d="M5.24197 63.9304L5.79243 64.2485L5.24197 64.5666L4.61041 64.93L4.05994 64.6119V63.8836L4.61197 63.5655L5.24197 63.2021V63.9304Z" fill="white"/>
<path d="M23.6041 53.3112L24.1701 53.6387L23.6041 53.9646L22.9881 54.3201L22.4221 54.6476L14.9946 58.936L14.4441 59.2541L13.8126 59.6174L13.2184 59.2743V58.5976L13.8126 58.2529L14.4441 57.8896L22.4221 53.2831L22.9897 52.9556L23.6041 52.6001V53.3112Z" fill="white"/>
<path d="M31.6024 47.9828L32.7844 47.2998V48.6643L31.6024 49.3473V47.9828Z" fill="white"/>
<path d="M41.9719 41.9966V43.3595L40.7899 44.0425V42.678L41.9719 41.9966Z" fill="white"/>
<path d="M69.5285 27.2099V27.7744L68.8346 28.1751L68.3465 28.4558L64.1548 30.876L63.5123 31.2471L62.9728 31.559L62.3303 31.9302L60.8114 32.8081L60.2344 33.1403L59.6278 33.4896L59.0524 33.8233V33.1574L58.4458 32.8066L59.0524 32.4557L59.6278 32.1251L60.2344 31.7742L61.7892 30.876H61.7907L62.3303 30.5641L62.9728 30.193L63.5123 29.8827L67.6525 27.4921L68.3465 27.0913L68.8346 26.8091L69.5285 27.2099Z" fill="white"/>
<path d="M99.9681 48.8844C99.2289 48.44 98.6363 47.8427 98.1903 47.0926C97.7444 46.3441 97.5214 45.5535 97.5214 44.7177V31.6374C97.5214 30.7657 97.749 29.9595 98.2044 29.2203C98.6597 28.4811 99.257 27.8932 99.9961 27.4566C100.735 27.02 101.512 26.8032 102.327 26.8032H122.09C122.924 26.8032 123.71 27.0262 124.451 27.4706C125.19 27.9166 125.782 28.5139 126.228 29.2624C126.673 30.0109 126.896 30.8031 126.896 31.6374V35.5608H123.57V32.0631C123.57 31.4939 123.389 31.0308 123.029 30.6705C122.668 30.3103 122.222 30.1294 121.692 30.1294H102.727C102.196 30.1294 101.75 30.3103 101.39 30.6705C101.03 31.0308 100.851 31.4861 100.851 32.035V44.2904C100.851 44.6693 100.94 45.0062 101.12 45.2993C101.3 45.594 101.532 45.8202 101.818 45.9823C102.101 46.143 102.415 46.2241 102.756 46.2241H121.666C122.196 46.2241 122.642 46.0385 123.002 45.6689C123.362 45.2993 123.551 44.8393 123.571 44.2904V40.6227H126.897V44.7177C126.897 45.5707 126.674 46.3722 126.23 47.1207C125.784 47.8692 125.191 48.4618 124.452 48.8984C123.713 49.3351 122.926 49.5518 122.091 49.5518H102.329C101.495 49.5518 100.709 49.3288 99.9696 48.8828L99.9681 48.8844Z" fill="white"/>
<path d="M130.905 26.8037H155.587C156.421 26.8037 157.193 27.0174 157.904 27.4431C158.616 27.8688 159.174 28.438 159.582 29.1491C159.989 29.8601 160.194 30.6414 160.194 31.4944V36.9819C160.194 38.1577 159.857 39.1526 159.185 39.9682C158.511 40.7838 157.635 41.2859 156.554 41.4746L160.705 49.5508H157.207L153.112 41.6181H134.231V49.5508H130.903V26.8037H130.905ZM154.99 38.3199C155.559 38.3199 156.018 38.1406 156.368 37.7804C156.719 37.4201 156.894 36.9554 156.894 36.3878V32.0651C156.894 31.4772 156.718 31.0094 156.368 30.657C156.018 30.3061 155.567 30.1315 155.018 30.1315H134.233V38.3215H154.99V38.3199Z" fill="white"/>
<path d="M166.235 48.8984C165.505 48.4618 164.917 47.8755 164.471 47.1347C164.025 46.3956 163.802 45.5987 163.802 44.7457V26.8032H167.1L167.128 44.2343C167.128 44.8221 167.317 45.3009 167.698 45.6705C168.077 46.04 168.541 46.2256 169.09 46.2256H187.914C188.483 46.2256 188.948 46.04 189.306 45.6705C189.667 45.3009 189.847 44.8315 189.847 44.2623V26.8032H193.174V44.8019C193.174 45.6939 192.951 46.4985 192.506 47.219C192.06 47.9394 191.472 48.5086 190.743 48.9249C190.013 49.3429 189.23 49.5503 188.397 49.5503H168.607C167.754 49.5503 166.962 49.3319 166.232 48.8969L166.235 48.8984Z" fill="white"/>
<path d="M197.186 26.8037H221.725C222.559 26.8037 223.35 27.022 224.1 27.4571C224.848 27.8937 225.446 28.4801 225.892 29.2208C226.336 29.9599 226.559 30.7849 226.559 31.694V44.6885C226.559 45.5602 226.336 46.3711 225.892 47.1196C225.446 47.8682 224.848 48.4607 224.1 48.8974C223.351 49.334 222.559 49.5508 221.725 49.5508H197.186V26.8037ZM221.327 46.2245C221.876 46.2245 222.331 46.039 222.692 45.6694C223.052 45.2998 223.233 44.8211 223.233 44.2332V32.0917C223.214 31.5038 223.028 31.025 222.678 30.6554C222.327 30.2859 221.867 30.1019 221.299 30.1019L200.514 30.1299V46.2245H221.329H221.327Z" fill="white"/>
<path d="M232.146 48.8833C231.398 48.4389 230.8 47.8416 230.354 47.0916C229.908 46.3431 229.687 45.5415 229.687 44.6885V31.6659C229.687 30.7942 229.91 29.9833 230.354 29.2348C230.799 28.4863 231.396 27.8937 232.146 27.4571C232.895 27.0205 233.687 26.8037 234.521 26.8037H254.255C255.071 26.8037 255.852 27.0267 256.601 27.4711C257.349 27.9171 257.946 28.5144 258.392 29.2629C258.837 30.0114 259.06 30.8129 259.06 31.6659V44.6885C259.06 45.5805 258.832 46.3945 258.378 47.1337C257.925 47.8728 257.326 48.4607 256.587 48.8974C255.848 49.334 255.06 49.5508 254.227 49.5508H234.523C233.688 49.5508 232.896 49.3278 232.148 48.8818L232.146 48.8833ZM253.8 46.2245C254.369 46.2245 254.832 46.039 255.193 45.6694C255.553 45.2998 255.732 44.8304 255.732 44.2612V32.1197C255.732 31.5131 255.551 31.0297 255.193 30.6695C254.832 30.3093 254.377 30.1284 253.828 30.1284H234.947C234.396 30.1284 233.938 30.3139 233.568 30.6835C233.199 31.0531 233.013 31.5318 233.013 32.1197V44.2612C233.013 44.8304 233.199 45.2983 233.568 45.6694C233.938 46.0405 234.398 46.2245 234.947 46.2245H253.798H253.8Z" fill="white"/>
<mask id="path-74-outside-1_139_1203" maskUnits="userSpaceOnUse" x="97.0599" y="56.4678" width="162" height="9" fill="black">
<rect fill="white" x="97.0599" y="56.4678" width="162" height="9"/>
<path d="M98.9687 61.6678V64.4678H98.0599V57.4678H102.063C102.236 57.4678 102.409 57.5344 102.582 57.6678L102.842 57.8678C103.015 58.0011 103.102 58.1678 103.102 58.3678V60.7678C103.102 60.9678 103.015 61.1344 102.842 61.2678L102.582 61.4678C102.409 61.6011 102.236 61.6678 102.063 61.6678H98.9687ZM98.9687 58.1678V60.9678H101.663C101.793 60.9678 101.875 60.9644 101.912 60.9578C101.948 60.9444 101.998 60.9144 102.063 60.8678C102.128 60.8211 102.164 60.7844 102.171 60.7578C102.186 60.7244 102.193 60.6578 102.193 60.5578V58.5778C102.193 58.4778 102.186 58.4144 102.171 58.3878C102.164 58.3544 102.128 58.3144 102.063 58.2678C101.998 58.2211 101.948 58.1944 101.912 58.1878C101.875 58.1744 101.793 58.1678 101.663 58.1678H98.9687Z"/>
<path d="M119.813 57.4678H123.816C123.989 57.4678 124.162 57.5344 124.336 57.6678L124.595 57.8678C124.768 58.0011 124.855 58.1678 124.855 58.3678V60.7078C124.855 60.9144 124.765 61.0878 124.584 61.2278L124.314 61.4378C124.155 61.5578 123.989 61.6178 123.816 61.6178H123.21L124.325 63.2178C124.404 63.3311 124.458 63.4044 124.487 63.4378C124.523 63.4644 124.599 63.5078 124.714 63.5678L124.833 63.6278C124.963 63.6944 125.039 63.7478 125.06 63.7878C125.082 63.8278 125.093 63.9244 125.093 64.0778V64.4678H124.822C124.693 64.4678 124.602 64.4611 124.552 64.4478C124.509 64.4344 124.429 64.3911 124.314 64.3178L124.108 64.1878C123.95 64.0878 123.82 63.9578 123.719 63.7978L122.28 61.6678H120.722V64.4678H119.813V57.4678ZM120.722 58.1678V60.9678H123.416C123.546 60.9678 123.629 60.9644 123.665 60.9578C123.701 60.9444 123.751 60.9144 123.816 60.8678C123.881 60.8211 123.917 60.7844 123.924 60.7578C123.939 60.7244 123.946 60.6578 123.946 60.5578V58.5778C123.946 58.4778 123.939 58.4144 123.924 58.3878C123.917 58.3544 123.881 58.3144 123.816 58.2678C123.751 58.2211 123.701 58.1944 123.665 58.1878C123.629 58.1744 123.546 58.1678 123.416 58.1678H120.722Z"/>
<path d="M142.954 57.4678H146.914C147.087 57.4678 147.26 57.5344 147.433 57.6678L147.693 57.8678C147.866 58.0011 147.952 58.1678 147.952 58.3678V63.5678C147.952 63.7678 147.866 63.9344 147.693 64.0678L147.433 64.2678C147.26 64.4011 147.087 64.4678 146.914 64.4678H142.954C142.781 64.4678 142.608 64.4011 142.434 64.2678L142.175 64.0678C142.002 63.9344 141.915 63.7678 141.915 63.5678V58.3678C141.915 58.1678 142.002 58.0011 142.175 57.8678L142.434 57.6678C142.608 57.5344 142.781 57.4678 142.954 57.4678ZM147.043 63.3578V58.5778C147.043 58.4778 147.036 58.4144 147.022 58.3878C147.015 58.3544 146.978 58.3144 146.914 58.2678C146.849 58.2211 146.798 58.1944 146.762 58.1878C146.726 58.1744 146.643 58.1678 146.513 58.1678H143.354C143.224 58.1678 143.141 58.1744 143.105 58.1878C143.069 58.1944 143.019 58.2211 142.954 58.2678C142.889 58.3144 142.849 58.3544 142.835 58.3878C142.827 58.4144 142.824 58.4778 142.824 58.5778V63.3578C142.824 63.4578 142.827 63.5244 142.835 63.5578C142.849 63.5844 142.889 63.6211 142.954 63.6678C143.019 63.7144 143.069 63.7444 143.105 63.7578C143.141 63.7644 143.224 63.7678 143.354 63.7678H146.513C146.643 63.7678 146.726 63.7644 146.762 63.7578C146.798 63.7444 146.849 63.7144 146.914 63.6678C146.978 63.6211 147.015 63.5844 147.022 63.5578C147.036 63.5244 147.043 63.4578 147.043 63.3578Z"/>
<path d="M163.789 57.4678H169.502V58.1678H167.1V64.4678H166.191V58.1678H163.789V57.4678Z"/>
<path d="M186.386 57.4678H190.346C190.519 57.4678 190.692 57.5344 190.865 57.6678L191.125 57.8678C191.298 58.0011 191.385 58.1678 191.385 58.3678V63.5678C191.385 63.7678 191.298 63.9344 191.125 64.0678L190.865 64.2678C190.692 64.4011 190.519 64.4678 190.346 64.4678H186.386C186.213 64.4678 186.04 64.4011 185.867 64.2678L185.607 64.0678C185.434 63.9344 185.348 63.7678 185.348 63.5678V58.3678C185.348 58.1678 185.434 58.0011 185.607 57.8678L185.867 57.6678C186.04 57.5344 186.213 57.4678 186.386 57.4678ZM190.476 63.3578V58.5778C190.476 58.4778 190.469 58.4144 190.454 58.3878C190.447 58.3544 190.411 58.3144 190.346 58.2678C190.281 58.2211 190.231 58.1944 190.195 58.1878C190.159 58.1744 190.076 58.1678 189.946 58.1678H186.787C186.657 58.1678 186.574 58.1744 186.538 58.1878C186.502 58.1944 186.451 58.2211 186.386 58.2678C186.321 58.3144 186.282 58.3544 186.267 58.3878C186.26 58.4144 186.256 58.4778 186.256 58.5778V63.3578C186.256 63.4578 186.26 63.5244 186.267 63.5578C186.282 63.5844 186.321 63.6211 186.386 63.6678C186.451 63.7144 186.502 63.7444 186.538 63.7578C186.574 63.7644 186.657 63.7678 186.787 63.7678H189.946C190.076 63.7678 190.159 63.7644 190.195 63.7578C190.231 63.7444 190.281 63.7144 190.346 63.6678C190.411 63.6211 190.447 63.5844 190.454 63.5578C190.469 63.5244 190.476 63.4578 190.476 63.3578Z"/>
<path d="M213.93 58.7678H213.021V58.5778C213.021 58.4778 213.014 58.4144 212.999 58.3878C212.992 58.3544 212.956 58.3144 212.891 58.2678C212.826 58.2211 212.776 58.1944 212.74 58.1878C212.704 58.1744 212.621 58.1678 212.491 58.1678H209.808C209.678 58.1678 209.595 58.1744 209.559 58.1878C209.523 58.1944 209.472 58.2211 209.407 58.2678C209.342 58.3144 209.303 58.3544 209.288 58.3878C209.281 58.4144 209.278 58.4778 209.278 58.5778V63.3578C209.278 63.4578 209.281 63.5244 209.288 63.5578C209.303 63.5844 209.342 63.6211 209.407 63.6678C209.472 63.7144 209.523 63.7444 209.559 63.7578C209.595 63.7644 209.678 63.7678 209.808 63.7678H212.491C212.621 63.7678 212.704 63.7644 212.74 63.7578C212.776 63.7444 212.826 63.7144 212.891 63.6678C212.956 63.6211 212.992 63.5844 212.999 63.5578C213.014 63.5244 213.021 63.4578 213.021 63.3578V63.1678H213.93V63.5678C213.93 63.7678 213.843 63.9344 213.67 64.0678L213.41 64.2678C213.237 64.4011 213.064 64.4678 212.891 64.4678H209.407C209.234 64.4678 209.061 64.4011 208.888 64.2678L208.628 64.0678C208.455 63.9344 208.369 63.7678 208.369 63.5678V58.3678C208.369 58.1678 208.455 58.0011 208.628 57.8678L208.888 57.6678C209.061 57.5344 209.234 57.4678 209.407 57.4678H212.891C213.064 57.4678 213.237 57.5344 213.41 57.6678L213.67 57.8678C213.843 58.0011 213.93 58.1678 213.93 58.3678V58.7678Z"/>
<path d="M231.404 57.4678H235.363C235.537 57.4678 235.71 57.5344 235.883 57.6678L236.142 57.8678C236.315 58.0011 236.402 58.1678 236.402 58.3678V63.5678C236.402 63.7678 236.315 63.9344 236.142 64.0678L235.883 64.2678C235.71 64.4011 235.537 64.4678 235.363 64.4678H231.404C231.23 64.4678 231.057 64.4011 230.884 64.2678L230.625 64.0678C230.452 63.9344 230.365 63.7678 230.365 63.5678V58.3678C230.365 58.1678 230.452 58.0011 230.625 57.8678L230.884 57.6678C231.057 57.5344 231.23 57.4678 231.404 57.4678ZM235.493 63.3578V58.5778C235.493 58.4778 235.486 58.4144 235.472 58.3878C235.464 58.3544 235.428 58.3144 235.363 58.2678C235.298 58.2211 235.248 58.1944 235.212 58.1878C235.176 58.1744 235.093 58.1678 234.963 58.1678H231.804C231.674 58.1678 231.591 58.1744 231.555 58.1878C231.519 58.1944 231.469 58.2211 231.404 58.2678C231.339 58.3144 231.299 58.3544 231.285 58.3878C231.277 58.4144 231.274 58.4778 231.274 58.5778V63.3578C231.274 63.4578 231.277 63.5244 231.285 63.5578C231.299 63.5844 231.339 63.6211 231.404 63.6678C231.469 63.7144 231.519 63.7444 231.555 63.7578C231.591 63.7644 231.674 63.7678 231.804 63.7678H234.963C235.093 63.7678 235.176 63.7644 235.212 63.7578C235.248 63.7444 235.298 63.7144 235.363 63.6678C235.428 63.6211 235.464 63.5844 235.472 63.5578C235.486 63.5244 235.493 63.4578 235.493 63.3578Z"/>
<path d="M258.06 63.7678V64.4678H253.386V57.4678H254.295V63.7678H258.06Z"/>
</mask>
<path d="M98.9687 61.6678V64.4678H98.0599V57.4678H102.063C102.236 57.4678 102.409 57.5344 102.582 57.6678L102.842 57.8678C103.015 58.0011 103.102 58.1678 103.102 58.3678V60.7678C103.102 60.9678 103.015 61.1344 102.842 61.2678L102.582 61.4678C102.409 61.6011 102.236 61.6678 102.063 61.6678H98.9687ZM98.9687 58.1678V60.9678H101.663C101.793 60.9678 101.875 60.9644 101.912 60.9578C101.948 60.9444 101.998 60.9144 102.063 60.8678C102.128 60.8211 102.164 60.7844 102.171 60.7578C102.186 60.7244 102.193 60.6578 102.193 60.5578V58.5778C102.193 58.4778 102.186 58.4144 102.171 58.3878C102.164 58.3544 102.128 58.3144 102.063 58.2678C101.998 58.2211 101.948 58.1944 101.912 58.1878C101.875 58.1744 101.793 58.1678 101.663 58.1678H98.9687Z" fill="white"/>
<path d="M119.813 57.4678H123.816C123.989 57.4678 124.162 57.5344 124.336 57.6678L124.595 57.8678C124.768 58.0011 124.855 58.1678 124.855 58.3678V60.7078C124.855 60.9144 124.765 61.0878 124.584 61.2278L124.314 61.4378C124.155 61.5578 123.989 61.6178 123.816 61.6178H123.21L124.325 63.2178C124.404 63.3311 124.458 63.4044 124.487 63.4378C124.523 63.4644 124.599 63.5078 124.714 63.5678L124.833 63.6278C124.963 63.6944 125.039 63.7478 125.06 63.7878C125.082 63.8278 125.093 63.9244 125.093 64.0778V64.4678H124.822C124.693 64.4678 124.602 64.4611 124.552 64.4478C124.509 64.4344 124.429 64.3911 124.314 64.3178L124.108 64.1878C123.95 64.0878 123.82 63.9578 123.719 63.7978L122.28 61.6678H120.722V64.4678H119.813V57.4678ZM120.722 58.1678V60.9678H123.416C123.546 60.9678 123.629 60.9644 123.665 60.9578C123.701 60.9444 123.751 60.9144 123.816 60.8678C123.881 60.8211 123.917 60.7844 123.924 60.7578C123.939 60.7244 123.946 60.6578 123.946 60.5578V58.5778C123.946 58.4778 123.939 58.4144 123.924 58.3878C123.917 58.3544 123.881 58.3144 123.816 58.2678C123.751 58.2211 123.701 58.1944 123.665 58.1878C123.629 58.1744 123.546 58.1678 123.416 58.1678H120.722Z" fill="white"/>
<path d="M142.954 57.4678H146.914C147.087 57.4678 147.26 57.5344 147.433 57.6678L147.693 57.8678C147.866 58.0011 147.952 58.1678 147.952 58.3678V63.5678C147.952 63.7678 147.866 63.9344 147.693 64.0678L147.433 64.2678C147.26 64.4011 147.087 64.4678 146.914 64.4678H142.954C142.781 64.4678 142.608 64.4011 142.434 64.2678L142.175 64.0678C142.002 63.9344 141.915 63.7678 141.915 63.5678V58.3678C141.915 58.1678 142.002 58.0011 142.175 57.8678L142.434 57.6678C142.608 57.5344 142.781 57.4678 142.954 57.4678ZM147.043 63.3578V58.5778C147.043 58.4778 147.036 58.4144 147.022 58.3878C147.015 58.3544 146.978 58.3144 146.914 58.2678C146.849 58.2211 146.798 58.1944 146.762 58.1878C146.726 58.1744 146.643 58.1678 146.513 58.1678H143.354C143.224 58.1678 143.141 58.1744 143.105 58.1878C143.069 58.1944 143.019 58.2211 142.954 58.2678C142.889 58.3144 142.849 58.3544 142.835 58.3878C142.827 58.4144 142.824 58.4778 142.824 58.5778V63.3578C142.824 63.4578 142.827 63.5244 142.835 63.5578C142.849 63.5844 142.889 63.6211 142.954 63.6678C143.019 63.7144 143.069 63.7444 143.105 63.7578C143.141 63.7644 143.224 63.7678 143.354 63.7678H146.513C146.643 63.7678 146.726 63.7644 146.762 63.7578C146.798 63.7444 146.849 63.7144 146.914 63.6678C146.978 63.6211 147.015 63.5844 147.022 63.5578C147.036 63.5244 147.043 63.4578 147.043 63.3578Z" fill="white"/>
<path d="M163.789 57.4678H169.502V58.1678H167.1V64.4678H166.191V58.1678H163.789V57.4678Z" fill="white"/>
<path d="M186.386 57.4678H190.346C190.519 57.4678 190.692 57.5344 190.865 57.6678L191.125 57.8678C191.298 58.0011 191.385 58.1678 191.385 58.3678V63.5678C191.385 63.7678 191.298 63.9344 191.125 64.0678L190.865 64.2678C190.692 64.4011 190.519 64.4678 190.346 64.4678H186.386C186.213 64.4678 186.04 64.4011 185.867 64.2678L185.607 64.0678C185.434 63.9344 185.348 63.7678 185.348 63.5678V58.3678C185.348 58.1678 185.434 58.0011 185.607 57.8678L185.867 57.6678C186.04 57.5344 186.213 57.4678 186.386 57.4678ZM190.476 63.3578V58.5778C190.476 58.4778 190.469 58.4144 190.454 58.3878C190.447 58.3544 190.411 58.3144 190.346 58.2678C190.281 58.2211 190.231 58.1944 190.195 58.1878C190.159 58.1744 190.076 58.1678 189.946 58.1678H186.787C186.657 58.1678 186.574 58.1744 186.538 58.1878C186.502 58.1944 186.451 58.2211 186.386 58.2678C186.321 58.3144 186.282 58.3544 186.267 58.3878C186.26 58.4144 186.256 58.4778 186.256 58.5778V63.3578C186.256 63.4578 186.26 63.5244 186.267 63.5578C186.282 63.5844 186.321 63.6211 186.386 63.6678C186.451 63.7144 186.502 63.7444 186.538 63.7578C186.574 63.7644 186.657 63.7678 186.787 63.7678H189.946C190.076 63.7678 190.159 63.7644 190.195 63.7578C190.231 63.7444 190.281 63.7144 190.346 63.6678C190.411 63.6211 190.447 63.5844 190.454 63.5578C190.469 63.5244 190.476 63.4578 190.476 63.3578Z" fill="white"/>
<path d="M213.93 58.7678H213.021V58.5778C213.021 58.4778 213.014 58.4144 212.999 58.3878C212.992 58.3544 212.956 58.3144 212.891 58.2678C212.826 58.2211 212.776 58.1944 212.74 58.1878C212.704 58.1744 212.621 58.1678 212.491 58.1678H209.808C209.678 58.1678 209.595 58.1744 209.559 58.1878C209.523 58.1944 209.472 58.2211 209.407 58.2678C209.342 58.3144 209.303 58.3544 209.288 58.3878C209.281 58.4144 209.278 58.4778 209.278 58.5778V63.3578C209.278 63.4578 209.281 63.5244 209.288 63.5578C209.303 63.5844 209.342 63.6211 209.407 63.6678C209.472 63.7144 209.523 63.7444 209.559 63.7578C209.595 63.7644 209.678 63.7678 209.808 63.7678H212.491C212.621 63.7678 212.704 63.7644 212.74 63.7578C212.776 63.7444 212.826 63.7144 212.891 63.6678C212.956 63.6211 212.992 63.5844 212.999 63.5578C213.014 63.5244 213.021 63.4578 213.021 63.3578V63.1678H213.93V63.5678C213.93 63.7678 213.843 63.9344 213.67 64.0678L213.41 64.2678C213.237 64.4011 213.064 64.4678 212.891 64.4678H209.407C209.234 64.4678 209.061 64.4011 208.888 64.2678L208.628 64.0678C208.455 63.9344 208.369 63.7678 208.369 63.5678V58.3678C208.369 58.1678 208.455 58.0011 208.628 57.8678L208.888 57.6678C209.061 57.5344 209.234 57.4678 209.407 57.4678H212.891C213.064 57.4678 213.237 57.5344 213.41 57.6678L213.67 57.8678C213.843 58.0011 213.93 58.1678 213.93 58.3678V58.7678Z" fill="white"/>
<path d="M231.404 57.4678H235.363C235.537 57.4678 235.71 57.5344 235.883 57.6678L236.142 57.8678C236.315 58.0011 236.402 58.1678 236.402 58.3678V63.5678C236.402 63.7678 236.315 63.9344 236.142 64.0678L235.883 64.2678C235.71 64.4011 235.537 64.4678 235.363 64.4678H231.404C231.23 64.4678 231.057 64.4011 230.884 64.2678L230.625 64.0678C230.452 63.9344 230.365 63.7678 230.365 63.5678V58.3678C230.365 58.1678 230.452 58.0011 230.625 57.8678L230.884 57.6678C231.057 57.5344 231.23 57.4678 231.404 57.4678ZM235.493 63.3578V58.5778C235.493 58.4778 235.486 58.4144 235.472 58.3878C235.464 58.3544 235.428 58.3144 235.363 58.2678C235.298 58.2211 235.248 58.1944 235.212 58.1878C235.176 58.1744 235.093 58.1678 234.963 58.1678H231.804C231.674 58.1678 231.591 58.1744 231.555 58.1878C231.519 58.1944 231.469 58.2211 231.404 58.2678C231.339 58.3144 231.299 58.3544 231.285 58.3878C231.277 58.4144 231.274 58.4778 231.274 58.5778V63.3578C231.274 63.4578 231.277 63.5244 231.285 63.5578C231.299 63.5844 231.339 63.6211 231.404 63.6678C231.469 63.7144 231.519 63.7444 231.555 63.7578C231.591 63.7644 231.674 63.7678 231.804 63.7678H234.963C235.093 63.7678 235.176 63.7644 235.212 63.7578C235.248 63.7444 235.298 63.7144 235.363 63.6678C235.428 63.6211 235.464 63.5844 235.472 63.5578C235.486 63.5244 235.493 63.4578 235.493 63.3578Z" fill="white"/>
<path d="M258.06 63.7678V64.4678H253.386V57.4678H254.295V63.7678H258.06Z" fill="white"/>
<path d="M98.9687 61.6678V64.4678H98.0599V57.4678H102.063C102.236 57.4678 102.409 57.5344 102.582 57.6678L102.842 57.8678C103.015 58.0011 103.102 58.1678 103.102 58.3678V60.7678C103.102 60.9678 103.015 61.1344 102.842 61.2678L102.582 61.4678C102.409 61.6011 102.236 61.6678 102.063 61.6678H98.9687ZM98.9687 58.1678V60.9678H101.663C101.793 60.9678 101.875 60.9644 101.912 60.9578C101.948 60.9444 101.998 60.9144 102.063 60.8678C102.128 60.8211 102.164 60.7844 102.171 60.7578C102.186 60.7244 102.193 60.6578 102.193 60.5578V58.5778C102.193 58.4778 102.186 58.4144 102.171 58.3878C102.164 58.3544 102.128 58.3144 102.063 58.2678C101.998 58.2211 101.948 58.1944 101.912 58.1878C101.875 58.1744 101.793 58.1678 101.663 58.1678H98.9687Z" stroke="white" stroke-width="0.6" mask="url(#path-74-outside-1_139_1203)"/>
<path d="M119.813 57.4678H123.816C123.989 57.4678 124.162 57.5344 124.336 57.6678L124.595 57.8678C124.768 58.0011 124.855 58.1678 124.855 58.3678V60.7078C124.855 60.9144 124.765 61.0878 124.584 61.2278L124.314 61.4378C124.155 61.5578 123.989 61.6178 123.816 61.6178H123.21L124.325 63.2178C124.404 63.3311 124.458 63.4044 124.487 63.4378C124.523 63.4644 124.599 63.5078 124.714 63.5678L124.833 63.6278C124.963 63.6944 125.039 63.7478 125.06 63.7878C125.082 63.8278 125.093 63.9244 125.093 64.0778V64.4678H124.822C124.693 64.4678 124.602 64.4611 124.552 64.4478C124.509 64.4344 124.429 64.3911 124.314 64.3178L124.108 64.1878C123.95 64.0878 123.82 63.9578 123.719 63.7978L122.28 61.6678H120.722V64.4678H119.813V57.4678ZM120.722 58.1678V60.9678H123.416C123.546 60.9678 123.629 60.9644 123.665 60.9578C123.701 60.9444 123.751 60.9144 123.816 60.8678C123.881 60.8211 123.917 60.7844 123.924 60.7578C123.939 60.7244 123.946 60.6578 123.946 60.5578V58.5778C123.946 58.4778 123.939 58.4144 123.924 58.3878C123.917 58.3544 123.881 58.3144 123.816 58.2678C123.751 58.2211 123.701 58.1944 123.665 58.1878C123.629 58.1744 123.546 58.1678 123.416 58.1678H120.722Z" stroke="white" stroke-width="0.6" mask="url(#path-74-outside-1_139_1203)"/>
<path d="M142.954 57.4678H146.914C147.087 57.4678 147.26 57.5344 147.433 57.6678L147.693 57.8678C147.866 58.0011 147.952 58.1678 147.952 58.3678V63.5678C147.952 63.7678 147.866 63.9344 147.693 64.0678L147.433 64.2678C147.26 64.4011 147.087 64.4678 146.914 64.4678H142.954C142.781 64.4678 142.608 64.4011 142.434 64.2678L142.175 64.0678C142.002 63.9344 141.915 63.7678 141.915 63.5678V58.3678C141.915 58.1678 142.002 58.0011 142.175 57.8678L142.434 57.6678C142.608 57.5344 142.781 57.4678 142.954 57.4678ZM147.043 63.3578V58.5778C147.043 58.4778 147.036 58.4144 147.022 58.3878C147.015 58.3544 146.978 58.3144 146.914 58.2678C146.849 58.2211 146.798 58.1944 146.762 58.1878C146.726 58.1744 146.643 58.1678 146.513 58.1678H143.354C143.224 58.1678 143.141 58.1744 143.105 58.1878C143.069 58.1944 143.019 58.2211 142.954 58.2678C142.889 58.3144 142.849 58.3544 142.835 58.3878C142.827 58.4144 142.824 58.4778 142.824 58.5778V63.3578C142.824 63.4578 142.827 63.5244 142.835 63.5578C142.849 63.5844 142.889 63.6211 142.954 63.6678C143.019 63.7144 143.069 63.7444 143.105 63.7578C143.141 63.7644 143.224 63.7678 143.354 63.7678H146.513C146.643 63.7678 146.726 63.7644 146.762 63.7578C146.798 63.7444 146.849 63.7144 146.914 63.6678C146.978 63.6211 147.015 63.5844 147.022 63.5578C147.036 63.5244 147.043 63.4578 147.043 63.3578Z" stroke="white" stroke-width="0.6" mask="url(#path-74-outside-1_139_1203)"/>
<path d="M163.789 57.4678H169.502V58.1678H167.1V64.4678H166.191V58.1678H163.789V57.4678Z" stroke="white" stroke-width="0.6" mask="url(#path-74-outside-1_139_1203)"/>
<path d="M186.386 57.4678H190.346C190.519 57.4678 190.692 57.5344 190.865 57.6678L191.125 57.8678C191.298 58.0011 191.385 58.1678 191.385 58.3678V63.5678C191.385 63.7678 191.298 63.9344 191.125 64.0678L190.865 64.2678C190.692 64.4011 190.519 64.4678 190.346 64.4678H186.386C186.213 64.4678 186.04 64.4011 185.867 64.2678L185.607 64.0678C185.434 63.9344 185.348 63.7678 185.348 63.5678V58.3678C185.348 58.1678 185.434 58.0011 185.607 57.8678L185.867 57.6678C186.04 57.5344 186.213 57.4678 186.386 57.4678ZM190.476 63.3578V58.5778C190.476 58.4778 190.469 58.4144 190.454 58.3878C190.447 58.3544 190.411 58.3144 190.346 58.2678C190.281 58.2211 190.231 58.1944 190.195 58.1878C190.159 58.1744 190.076 58.1678 189.946 58.1678H186.787C186.657 58.1678 186.574 58.1744 186.538 58.1878C186.502 58.1944 186.451 58.2211 186.386 58.2678C186.321 58.3144 186.282 58.3544 186.267 58.3878C186.26 58.4144 186.256 58.4778 186.256 58.5778V63.3578C186.256 63.4578 186.26 63.5244 186.267 63.5578C186.282 63.5844 186.321 63.6211 186.386 63.6678C186.451 63.7144 186.502 63.7444 186.538 63.7578C186.574 63.7644 186.657 63.7678 186.787 63.7678H189.946C190.076 63.7678 190.159 63.7644 190.195 63.7578C190.231 63.7444 190.281 63.7144 190.346 63.6678C190.411 63.6211 190.447 63.5844 190.454 63.5578C190.469 63.5244 190.476 63.4578 190.476 63.3578Z" stroke="white" stroke-width="0.6" mask="url(#path-74-outside-1_139_1203)"/>
<path d="M213.93 58.7678H213.021V58.5778C213.021 58.4778 213.014 58.4144 212.999 58.3878C212.992 58.3544 212.956 58.3144 212.891 58.2678C212.826 58.2211 212.776 58.1944 212.74 58.1878C212.704 58.1744 212.621 58.1678 212.491 58.1678H209.808C209.678 58.1678 209.595 58.1744 209.559 58.1878C209.523 58.1944 209.472 58.2211 209.407 58.2678C209.342 58.3144 209.303 58.3544 209.288 58.3878C209.281 58.4144 209.278 58.4778 209.278 58.5778V63.3578C209.278 63.4578 209.281 63.5244 209.288 63.5578C209.303 63.5844 209.342 63.6211 209.407 63.6678C209.472 63.7144 209.523 63.7444 209.559 63.7578C209.595 63.7644 209.678 63.7678 209.808 63.7678H212.491C212.621 63.7678 212.704 63.7644 212.74 63.7578C212.776 63.7444 212.826 63.7144 212.891 63.6678C212.956 63.6211 212.992 63.5844 212.999 63.5578C213.014 63.5244 213.021 63.4578 213.021 63.3578V63.1678H213.93V63.5678C213.93 63.7678 213.843 63.9344 213.67 64.0678L213.41 64.2678C213.237 64.4011 213.064 64.4678 212.891 64.4678H209.407C209.234 64.4678 209.061 64.4011 208.888 64.2678L208.628 64.0678C208.455 63.9344 208.369 63.7678 208.369 63.5678V58.3678C208.369 58.1678 208.455 58.0011 208.628 57.8678L208.888 57.6678C209.061 57.5344 209.234 57.4678 209.407 57.4678H212.891C213.064 57.4678 213.237 57.5344 213.41 57.6678L213.67 57.8678C213.843 58.0011 213.93 58.1678 213.93 58.3678V58.7678Z" stroke="white" stroke-width="0.6" mask="url(#path-74-outside-1_139_1203)"/>
<path d="M231.404 57.4678H235.363C235.537 57.4678 235.71 57.5344 235.883 57.6678L236.142 57.8678C236.315 58.0011 236.402 58.1678 236.402 58.3678V63.5678C236.402 63.7678 236.315 63.9344 236.142 64.0678L235.883 64.2678C235.71 64.4011 235.537 64.4678 235.363 64.4678H231.404C231.23 64.4678 231.057 64.4011 230.884 64.2678L230.625 64.0678C230.452 63.9344 230.365 63.7678 230.365 63.5678V58.3678C230.365 58.1678 230.452 58.0011 230.625 57.8678L230.884 57.6678C231.057 57.5344 231.23 57.4678 231.404 57.4678ZM235.493 63.3578V58.5778C235.493 58.4778 235.486 58.4144 235.472 58.3878C235.464 58.3544 235.428 58.3144 235.363 58.2678C235.298 58.2211 235.248 58.1944 235.212 58.1878C235.176 58.1744 235.093 58.1678 234.963 58.1678H231.804C231.674 58.1678 231.591 58.1744 231.555 58.1878C231.519 58.1944 231.469 58.2211 231.404 58.2678C231.339 58.3144 231.299 58.3544 231.285 58.3878C231.277 58.4144 231.274 58.4778 231.274 58.5778V63.3578C231.274 63.4578 231.277 63.5244 231.285 63.5578C231.299 63.5844 231.339 63.6211 231.404 63.6678C231.469 63.7144 231.519 63.7444 231.555 63.7578C231.591 63.7644 231.674 63.7678 231.804 63.7678H234.963C235.093 63.7678 235.176 63.7644 235.212 63.7578C235.248 63.7444 235.298 63.7144 235.363 63.6678C235.428 63.6211 235.464 63.5844 235.472 63.5578C235.486 63.5244 235.493 63.4578 235.493 63.3578Z" stroke="white" stroke-width="0.6" mask="url(#path-74-outside-1_139_1203)"/>
<path d="M258.06 63.7678V64.4678H253.386V57.4678H254.295V63.7678H258.06Z" stroke="white" stroke-width="0.6" mask="url(#path-74-outside-1_139_1203)"/>
</g>
<defs>
<filter id="filter0_d_139_1203" x="0.0599365" y="0" width="263" height="94.2305" filterUnits="userSpaceOnUse" color-interpolation-filters="sRGB">
<feFlood flood-opacity="0" result="BackgroundImageFix"/>
<feColorMatrix in="SourceAlpha" type="matrix" values="0 0 0 0 0 0 0 0 0 0 0 0 0 0 0 0 0 0 127 0" result="hardAlpha"/>
<feOffset dy="4"/>
<feGaussianBlur stdDeviation="2"/>
<feComposite in2="hardAlpha" operator="out"/>
<feColorMatrix type="matrix" values="0 0 0 0 0 0 0 0 0 0 0 0 0 0 0 0 0 0 0.25 0"/>
<feBlend mode="normal" in2="BackgroundImageFix" result="effect1_dropShadow_139_1203"/>
<feBlend mode="normal" in="SourceGraphic" in2="effect1_dropShadow_139_1203" result="shape"/>
</filter>
</defs>
</svg>
